# MagicaVoxel @ Ephtracy

# group
o 

# material
mtllib mechi_left_leg.mtl
usemtl palette

# normals
vn -1 0 0
vn 1 0 0
vn 0 0 1
vn 0 0 -1
vn 0 -1 0
vn 0 1 0

# texcoords
vt 0.853516 0.5
vt 0.861328 0.5
vt 0.978516 0.5
vt 0.982422 0.5

# verts
v -0.1 -0.8 0.1
v -0.1 -0.8 0
v -0.1 -0.7 0.1
v -0.1 -0.7 0
v -0.1 -0.6 0.2
v -0.1 -0.6 0.1
v -0.1 -0.5 0.1
v -0.1 -0.5 0
v -0.1 -0.4 0.1
v -0.1 -0.4 0
v -0.1 -0.4 -0.1
v -0.1 -0.3 0.2
v -0.1 -0.3 0.1
v -0.1 -0.3 0
v -0.1 -0.3 -0.1
v -0.1 -0.2 0.2
v -0.1 -0.2 0.1
v -0.1 -0.2 0
v -0.1 -0.2 -0.1
v -0.1 -0.1 0.2
v -0.1 -0.1 0.1
v -0.1 -0.1 0
v -0.1 -0.1 -0.1
v 0 -0.1 0.2
v 0 -0.1 0.1
v 0 -0.1 0
v 0 -0.1 -0.1
v 0 0 0.2
v 0 0 0.1
v 0 0 0
v 0 0 -0.1
v 0.1 0 0.2
v 0.1 0 0.1
v 0.1 0 0
v 0.1 0 -0.1
v 0.1 0.2 0.2
v 0.1 0.2 0.1
v 0.1 0.2 0
v 0.1 0.2 -0.1
v 0.1 0.3 0.1
v 0.1 0.3 0
v 0 -0.8 0.1
v 0 -0.8 0
v 0 -0.7 0.1
v 0 -0.7 0
v 0 -0.6 0.2
v 0 -0.6 0.1
v 0 -0.5 0.1
v 0 -0.5 0
v 0 -0.4 0
v 0 -0.4 -0.1
v 0 -0.3 0.2
v 0 -0.3 0.1
v 0 -0.3 0
v 0 -0.3 -0.1
v 0 -0.2 0
v 0 -0.2 -0.1
v 0.1 -0.5 0.1
v 0.1 -0.5 0
v 0.1 -0.3 0.2
v 0.1 -0.3 0.1
v 0.1 -0.3 0
v 0.1 -0.2 0.2
v 0.1 -0.2 0.1
v 0.1 -0.2 0
v 0.1 -0.2 -0.1
v 0.1 -0.1 0.2
v 0.1 -0.1 0.1
v 0.1 -0.1 0
v 0.1 -0.1 -0.1
v 0.2 -0.3 0.1
v 0.2 -0.3 0
v 0.2 -0.1 0.2
v 0.2 -0.1 0.1
v 0.2 -0.1 0
v 0.2 -0.1 -0.1
v 0.2 0 0.2
v 0.2 0 0.1
v 0.2 0 0
v 0.2 0 -0.1
v 0.2 0.2 0.2
v 0.2 0.2 0.1
v 0.2 0.2 0
v 0.2 0.2 -0.1
v 0.2 0.3 0.1
v 0.2 0.3 0
v -0.1 -0.6 0.2
v -0.1 -0.3 0.2
v -0.1 -0.2 0.2
v -0.1 -0.1 0.2
v 0 -0.6 0.2
v 0 -0.3 0.2
v 0 -0.2 0.2
v 0 -0.1 0.2
v 0 0 0.2
v 0.1 -0.3 0.2
v 0.1 -0.2 0.2
v 0.1 -0.1 0.2
v 0.1 0 0.2
v 0.1 0.2 0.2
v 0.2 -0.1 0.2
v 0.2 0 0.2
v 0.2 0.2 0.2
v -0.1 -0.8 0.1
v -0.1 -0.7 0.1
v -0.1 -0.6 0.1
v 0 -0.8 0.1
v 0 -0.7 0.1
v 0 -0.6 0.1
v 0 -0.5 0.1
v 0 -0.3 0.1
v 0.1 -0.5 0.1
v 0.1 -0.3 0.1
v 0.1 -0.2 0.1
v 0.1 -0.1 0.1
v 0.1 0.2 0.1
v 0.1 0.3 0.1
v 0.2 -0.3 0.1
v 0.2 -0.1 0.1
v 0.2 0.2 0.1
v 0.2 0.3 0.1
v -0.1 -0.8 0
v -0.1 -0.7 0
v -0.1 -0.5 0
v -0.1 -0.4 0
v 0 -0.8 0
v 0 -0.7 0
v 0 -0.5 0
v 0 -0.4 0
v 0 -0.3 0
v 0 -0.2 0
v 0.1 -0.5 0
v 0.1 -0.3 0
v 0.1 -0.2 0
v 0.1 -0.1 0
v 0.1 0.2 0
v 0.1 0.3 0
v 0.2 -0.3 0
v 0.2 -0.1 0
v 0.2 0.2 0
v 0.2 0.3 0
v -0.1 -0.4 -0.1
v -0.1 -0.3 -0.1
v -0.1 -0.2 -0.1
v -0.1 -0.1 -0.1
v 0 -0.4 -0.1
v 0 -0.3 -0.1
v 0 -0.2 -0.1
v 0 -0.1 -0.1
v 0 0 -0.1
v 0.1 -0.2 -0.1
v 0.1 -0.1 -0.1
v 0.1 0 -0.1
v 0.1 0.2 -0.1
v 0.2 -0.1 -0.1
v 0.2 0 -0.1
v 0.2 0.2 -0.1
v -0.1 -0.8 0.1
v 0 -0.8 0.1
v -0.1 -0.8 0
v 0 -0.8 0
v -0.1 -0.6 0.2
v 0 -0.6 0.2
v -0.1 -0.6 0.1
v 0 -0.6 0.1
v 0 -0.5 0.1
v 0.1 -0.5 0.1
v 0 -0.5 0
v 0.1 -0.5 0
v -0.1 -0.4 0
v 0 -0.4 0
v -0.1 -0.4 -0.1
v 0 -0.4 -0.1
v 0 -0.3 0.2
v 0.1 -0.3 0.2
v 0 -0.3 0.1
v 0.1 -0.3 0.1
v 0.2 -0.3 0.1
v 0.1 -0.3 0
v 0.2 -0.3 0
v 0 -0.2 0
v 0.1 -0.2 0
v 0 -0.2 -0.1
v 0.1 -0.2 -0.1
v 0.1 -0.1 0.2
v 0.2 -0.1 0.2
v 0.1 -0.1 0.1
v 0.2 -0.1 0.1
v 0.1 -0.1 0
v 0.2 -0.1 0
v 0.1 -0.1 -0.1
v 0.2 -0.1 -0.1
v -0.1 -0.1 0.2
v 0 -0.1 0.2
v -0.1 -0.1 0.1
v 0 -0.1 0.1
v -0.1 -0.1 0
v 0 -0.1 0
v -0.1 -0.1 -0.1
v 0 -0.1 -0.1
v 0 0 0.2
v 0.1 0 0.2
v 0 0 0.1
v 0.1 0 0.1
v 0 0 0
v 0.1 0 0
v 0 0 -0.1
v 0.1 0 -0.1
v 0.1 0.2 0.2
v 0.2 0.2 0.2
v 0.1 0.2 0.1
v 0.2 0.2 0.1
v 0.1 0.2 0
v 0.2 0.2 0
v 0.1 0.2 -0.1
v 0.2 0.2 -0.1
v 0.1 0.3 0.1
v 0.2 0.3 0.1
v 0.1 0.3 0
v 0.2 0.3 0

# faces
f 3/4/1 2/4/1 1/4/1
f 4/4/1 2/4/1 3/4/1
f 6/3/1 4/3/1 3/3/1
f 7/3/1 4/3/1 6/3/1
f 7/1/1 6/1/1 5/1/1
f 8/3/1 4/3/1 7/3/1
f 9/1/1 7/1/1 5/1/1
f 9/1/1 8/1/1 7/1/1
f 10/1/1 8/1/1 9/1/1
f 12/1/1 9/1/1 5/1/1
f 13/2/1 10/2/1 9/2/1
f 13/1/1 9/1/1 12/1/1
f 14/1/1 11/1/1 10/1/1
f 14/2/1 10/2/1 13/2/1
f 15/1/1 11/1/1 14/1/1
f 16/2/1 13/2/1 12/2/1
f 17/1/1 14/1/1 13/1/1
f 17/2/1 13/2/1 16/2/1
f 18/2/1 15/2/1 14/2/1
f 18/1/1 14/1/1 17/1/1
f 19/2/1 15/2/1 18/2/1
f 20/1/1 17/1/1 16/1/1
f 21/2/1 18/2/1 17/2/1
f 21/1/1 17/1/1 20/1/1
f 22/1/1 19/1/1 18/1/1
f 22/2/1 18/2/1 21/2/1
f 23/1/1 19/1/1 22/1/1
f 28/1/1 25/1/1 24/1/1
f 29/2/1 26/2/1 25/2/1
f 29/1/1 25/1/1 28/1/1
f 30/1/1 27/1/1 26/1/1
f 30/2/1 26/2/1 29/2/1
f 31/1/1 27/1/1 30/1/1
f 36/1/1 33/1/1 32/1/1
f 37/2/1 34/2/1 33/2/1
f 37/1/1 33/1/1 36/1/1
f 38/1/1 35/1/1 34/1/1
f 38/2/1 34/2/1 37/2/1
f 39/1/1 35/1/1 38/1/1
f 40/1/1 38/1/1 37/1/1
f 41/1/1 38/1/1 40/1/1
f 42/4/2 43/4/2 44/4/2
f 44/4/2 43/4/2 45/4/2
f 44/3/2 45/3/2 47/3/2
f 47/3/2 45/3/2 48/3/2
f 46/1/2 47/1/2 48/1/2
f 48/3/2 45/3/2 49/3/2
f 46/1/2 48/1/2 52/1/2
f 52/1/2 48/1/2 53/1/2
f 50/1/2 51/1/2 54/1/2
f 54/1/2 51/1/2 55/1/2
f 54/2/2 55/2/2 56/2/2
f 56/2/2 55/2/2 57/2/2
f 58/3/2 59/3/2 61/3/2
f 61/3/2 59/3/2 62/3/2
f 60/1/2 61/1/2 63/1/2
f 63/1/2 61/1/2 64/1/2
f 63/2/2 64/2/2 67/2/2
f 67/2/2 64/2/2 68/2/2
f 65/2/2 66/2/2 69/2/2
f 69/2/2 66/2/2 70/2/2
f 71/3/2 72/3/2 74/3/2
f 74/3/2 72/3/2 75/3/2
f 73/2/2 74/2/2 77/2/2
f 74/4/2 75/4/2 78/4/2
f 77/2/2 74/2/2 78/2/2
f 75/2/2 76/2/2 79/2/2
f 78/4/2 75/4/2 79/4/2
f 79/2/2 76/2/2 80/2/2
f 77/1/2 78/1/2 81/1/2
f 78/2/2 79/2/2 82/2/2
f 81/1/2 78/1/2 82/1/2
f 79/1/2 80/1/2 83/1/2
f 82/2/2 79/2/2 83/2/2
f 83/1/2 80/1/2 84/1/2
f 82/1/2 83/1/2 85/1/2
f 85/1/2 83/1/2 86/1/2
f 91/1/3 88/1/3 87/1/3
f 92/2/3 89/2/3 88/2/3
f 92/1/3 88/1/3 91/1/3
f 93/1/3 90/1/3 89/1/3
f 93/2/3 89/2/3 92/2/3
f 94/1/3 90/1/3 93/1/3
f 96/1/3 93/1/3 92/1/3
f 97/2/3 94/2/3 93/2/3
f 97/1/3 93/1/3 96/1/3
f 98/1/3 95/1/3 94/1/3
f 98/2/3 94/2/3 97/2/3
f 99/1/3 95/1/3 98/1/3
f 101/2/3 99/2/3 98/2/3
f 102/1/3 100/1/3 99/1/3
f 102/2/3 99/2/3 101/2/3
f 103/1/3 100/1/3 102/1/3
f 107/4/3 105/4/3 104/4/3
f 108/3/3 106/3/3 105/3/3
f 108/4/3 105/4/3 107/4/3
f 109/3/3 106/3/3 108/3/3
f 112/3/3 111/3/3 110/3/3
f 113/3/3 111/3/3 112/3/3
f 118/3/3 114/3/3 113/3/3
f 118/3/3 115/3/3 114/3/3
f 119/3/3 115/3/3 118/3/3
f 120/1/3 117/1/3 116/1/3
f 121/1/3 117/1/3 120/1/3
f 122/4/4 123/4/4 126/4/4
f 123/3/4 124/3/4 127/3/4
f 126/4/4 123/4/4 127/4/4
f 124/1/4 125/1/4 128/1/4
f 127/3/4 124/3/4 128/3/4
f 128/1/4 125/1/4 129/1/4
f 129/3/4 130/3/4 132/3/4
f 128/3/4 129/3/4 132/3/4
f 130/1/4 131/1/4 133/1/4
f 132/3/4 130/3/4 133/3/4
f 133/1/4 131/1/4 134/1/4
f 133/3/4 134/3/4 138/3/4
f 134/3/4 135/3/4 138/3/4
f 138/3/4 135/3/4 139/3/4
f 136/1/4 137/1/4 140/1/4
f 140/1/4 137/1/4 141/1/4
f 142/1/4 143/1/4 146/1/4
f 143/2/4 144/2/4 147/2/4
f 146/1/4 143/1/4 147/1/4
f 144/1/4 145/1/4 148/1/4
f 147/2/4 144/2/4 148/2/4
f 148/1/4 145/1/4 149/1/4
f 148/2/4 149/2/4 151/2/4
f 149/1/4 150/1/4 152/1/4
f 151/2/4 149/2/4 152/2/4
f 152/1/4 150/1/4 153/1/4
f 152/2/4 153/2/4 155/2/4
f 153/1/4 154/1/4 156/1/4
f 155/2/4 153/2/4 156/2/4
f 156/1/4 154/1/4 157/1/4
f 160/4/5 159/4/5 158/4/5
f 161/4/5 159/4/5 160/4/5
f 164/1/5 163/1/5 162/1/5
f 165/1/5 163/1/5 164/1/5
f 168/3/5 167/3/5 166/3/5
f 169/3/5 167/3/5 168/3/5
f 172/1/5 171/1/5 170/1/5
f 173/1/5 171/1/5 172/1/5
f 176/1/5 175/1/5 174/1/5
f 177/1/5 175/1/5 176/1/5
f 179/3/5 178/3/5 177/3/5
f 180/3/5 178/3/5 179/3/5
f 183/2/5 182/2/5 181/2/5
f 184/2/5 182/2/5 183/2/5
f 187/2/5 186/2/5 185/2/5
f 188/2/5 186/2/5 187/2/5
f 191/2/5 190/2/5 189/2/5
f 192/2/5 190/2/5 191/2/5
f 193/1/6 194/1/6 195/1/6
f 195/1/6 194/1/6 196/1/6
f 195/2/6 196/2/6 197/2/6
f 197/2/6 196/2/6 198/2/6
f 197/1/6 198/1/6 199/1/6
f 199/1/6 198/1/6 200/1/6
f 201/1/6 202/1/6 203/1/6
f 203/1/6 202/1/6 204/1/6
f 203/2/6 204/2/6 205/2/6
f 205/2/6 204/2/6 206/2/6
f 205/1/6 206/1/6 207/1/6
f 207/1/6 206/1/6 208/1/6
f 209/1/6 210/1/6 211/1/6
f 211/1/6 210/1/6 212/1/6
f 213/1/6 214/1/6 215/1/6
f 215/1/6 214/1/6 216/1/6
f 217/1/6 218/1/6 219/1/6
f 219/1/6 218/1/6 220/1/6
