# MagicaVoxel @ Ephtracy

# group
o 

# material
mtllib mechi_right_arm.mtl
usemtl palette

# normals
vn -1 0 0
vn 1 0 0
vn 0 0 1
vn 0 0 -1
vn 0 -1 0
vn 0 1 0

# texcoords
vt 0.142578 0.5
vt 0.830078 0.5
vt 0.849609 0.5
vt 0.853516 0.5
vt 0.861328 0.5
vt 0.978516 0.5
vt 0.982422 0.5

# verts
v -0.3 -0.3 0.1
v -0.3 -0.3 -0.1
v -0.3 -0.2 0.1
v -0.3 -0.2 0
v -0.3 -0.2 -0.1
v -0.3 -0.2 -0.2
v -0.3 -0.1 0
v -0.3 -0.1 -0.1
v -0.3 0.1 0
v -0.3 0.1 -0.1
v -0.3 0.1 -0.2
v -0.3 0.2 0.1
v -0.3 0.2 0
v -0.3 0.2 -0.1
v -0.3 0.2 -0.2
v -0.3 0.2 -0.3
v -0.3 0.3 0
v -0.3 0.3 -0.1
v -0.3 0.3 -0.2
v -0.3 0.4 -0.2
v -0.3 0.4 -0.3
v -0.2 -0.7 0
v -0.2 -0.7 -0.1
v -0.2 -0.6 0.1
v -0.2 -0.6 0
v -0.2 -0.5 0.1
v -0.2 -0.5 0
v -0.2 -0.3 0.2
v -0.2 -0.3 0.1
v -0.2 -0.3 0
v -0.2 -0.3 -0.1
v -0.2 -0.3 -0.2
v -0.2 -0.2 0.1
v -0.2 -0.2 -0.1
v -0.2 -0.2 -0.2
v -0.2 0 0.2
v -0.2 0 0.1
v -0.1 -0.9 0.1
v -0.1 -0.9 0
v -0.1 -0.9 -0.1
v -0.1 -0.8 0.1
v -0.1 -0.8 0
v -0.1 -0.8 -0.1
v -0.1 -0.7 0
v -0.1 -0.7 -0.1
v -0.1 -0.6 0.1
v -0.1 -0.6 0
v -0.1 -0.5 -0.1
v -0.1 -0.5 -0.2
v -0.1 -0.3 -0.1
v -0.1 -0.3 -0.2
v -0.2 0.1 0.1
v -0.2 0.1 -0.1
v -0.2 0.1 -0.2
v -0.2 0.2 0.1
v -0.2 0.2 0
v -0.2 0.2 -0.1
v -0.2 0.2 -0.2
v -0.2 0.2 -0.3
v -0.2 0.3 0
v -0.2 0.3 -0.1
v -0.2 0.3 -0.2
v -0.2 0.4 -0.2
v -0.2 0.4 -0.3
v 0 -0.9 0.1
v 0 -0.9 0
v 0 -0.9 -0.1
v 0 -0.8 0.1
v 0 -0.8 0
v 0 -0.8 -0.1
v 0 -0.5 0.1
v 0 -0.5 0
v 0 -0.5 -0.1
v 0 -0.5 -0.2
v 0 -0.3 0.2
v 0 -0.3 0.1
v 0 -0.2 -0.1
v 0 -0.2 -0.2
v 0 -0.1 0.1
v 0 -0.1 -0.1
v 0 0 0.2
v 0 0 0.1
v 0 0.1 0.1
v 0 0.1 -0.1
v 0 0.1 -0.2
v -0.2 -0.3 0.2
v -0.2 0 0.2
v -0.1 -0.3 0.2
v -0.1 0 0.2
v 0 -0.3 0.2
v 0 0 0.2
v -0.3 -0.3 0.1
v -0.3 -0.2 0.1
v -0.3 0.2 0.1
v -0.2 -0.6 0.1
v -0.2 -0.5 0.1
v -0.2 -0.3 0.1
v -0.2 -0.2 0.1
v -0.2 0 0.1
v -0.2 0.1 0.1
v -0.2 0.2 0.1
v -0.1 -0.9 0.1
v -0.1 -0.8 0.1
v -0.1 -0.6 0.1
v -0.1 -0.5 0.1
v -0.1 -0.3 0.1
v -0.1 0 0.1
v -0.1 0.1 0.1
v 0 -0.9 0.1
v 0 -0.8 0.1
v 0 -0.5 0.1
v 0 -0.3 0.1
v 0 0 0.1
v 0 0.1 0.1
v -0.3 0.2 0
v -0.3 0.3 0
v -0.2 -0.7 0
v -0.2 -0.6 0
v -0.2 0.2 0
v -0.2 0.3 0
v -0.1 -0.7 0
v -0.1 -0.6 0
v -0.3 0.3 -0.2
v -0.3 0.4 -0.2
v -0.2 0.3 -0.2
v -0.2 0.4 -0.2
v -0.3 -0.3 -0.1
v -0.3 -0.2 -0.1
v -0.2 -0.7 -0.1
v -0.2 -0.3 -0.1
v -0.2 -0.2 -0.1
v -0.1 -0.9 -0.1
v -0.1 -0.8 -0.1
v -0.1 -0.7 -0.1
v -0.1 -0.5 -0.1
v -0.1 -0.3 -0.1
v 0 -0.9 -0.1
v 0 -0.8 -0.1
v 0 -0.5 -0.1
v -0.3 -0.2 -0.2
v -0.3 0.1 -0.2
v -0.3 0.2 -0.2
v -0.2 -0.3 -0.2
v -0.2 -0.2 -0.2
v -0.2 0.1 -0.2
v -0.2 0.2 -0.2
v -0.1 -0.5 -0.2
v -0.1 -0.3 -0.2
v -0.1 -0.2 -0.2
v -0.1 0.1 -0.2
v 0 -0.5 -0.2
v 0 -0.2 -0.2
v 0 0.1 -0.2
v -0.3 0.2 -0.3
v -0.3 0.4 -0.3
v -0.2 0.2 -0.3
v -0.2 0.4 -0.3
v -0.1 -0.9 0.1
v 0 -0.9 0.1
v -0.1 -0.9 0
v 0 -0.9 0
v -0.1 -0.9 -0.1
v 0 -0.9 -0.1
v -0.2 -0.7 0
v -0.1 -0.7 0
v -0.2 -0.7 -0.1
v -0.1 -0.7 -0.1
v -0.2 -0.6 0.1
v -0.1 -0.6 0.1
v -0.2 -0.6 0
v -0.1 -0.6 0
v -0.1 -0.5 -0.1
v 0 -0.5 -0.1
v -0.1 -0.5 -0.2
v 0 -0.5 -0.2
v -0.2 -0.3 0.2
v -0.1 -0.3 0.2
v 0 -0.3 0.2
v -0.3 -0.3 0.1
v -0.2 -0.3 0.1
v -0.1 -0.3 0.1
v 0 -0.3 0.1
v -0.2 -0.3 0
v -0.3 -0.3 -0.1
v -0.2 -0.3 -0.1
v -0.1 -0.3 -0.1
v -0.2 -0.3 -0.2
v -0.1 -0.3 -0.2
v -0.3 -0.2 -0.1
v -0.2 -0.2 -0.1
v -0.3 -0.2 -0.2
v -0.2 -0.2 -0.2
v -0.3 0.2 -0.2
v -0.2 0.2 -0.2
v -0.3 0.2 -0.3
v -0.2 0.2 -0.3
v -0.2 0 0.2
v -0.1 0 0.2
v 0 0 0.2
v -0.2 0 0.1
v -0.1 0 0.1
v 0 0 0.1
v -0.2 0.1 0.1
v -0.1 0.1 0.1
v 0 0.1 0.1
v -0.2 0.1 -0.1
v -0.1 0.1 -0.1
v 0 0.1 -0.1
v -0.2 0.1 -0.2
v -0.1 0.1 -0.2
v 0 0.1 -0.2
v -0.3 0.2 0.1
v -0.2 0.2 0.1
v -0.3 0.2 0
v -0.2 0.2 0
v -0.3 0.3 0
v -0.2 0.3 0
v -0.3 0.3 -0.1
v -0.2 0.3 -0.1
v -0.3 0.3 -0.2
v -0.2 0.3 -0.2
v -0.3 0.4 -0.2
v -0.2 0.4 -0.2
v -0.3 0.4 -0.3
v -0.2 0.4 -0.3

# faces
f 3/5/1 2/5/1 1/5/1
f 4/5/1 2/5/1 3/5/1
f 5/5/1 2/5/1 4/5/1
f 7/4/1 4/4/1 3/4/1
f 7/5/1 6/5/1 5/5/1
f 7/5/1 5/5/1 4/5/1
f 8/5/1 6/5/1 7/5/1
f 9/4/1 7/4/1 3/4/1
f 9/2/1 8/2/1 7/2/1
f 10/5/1 6/5/1 8/5/1
f 10/2/1 8/2/1 9/2/1
f 11/5/1 6/5/1 10/5/1
f 12/4/1 9/4/1 3/4/1
f 12/4/1 10/4/1 9/4/1
f 12/4/1 11/4/1 10/4/1
f 13/4/1 11/4/1 12/4/1
f 14/4/1 11/4/1 13/4/1
f 15/4/1 11/4/1 14/4/1
f 17/4/1 14/4/1 13/4/1
f 18/3/1 15/3/1 14/3/1
f 18/4/1 14/4/1 17/4/1
f 18/3/1 16/3/1 15/3/1
f 19/3/1 16/3/1 18/3/1
f 20/3/1 16/3/1 19/3/1
f 21/3/1 16/3/1 20/3/1
f 25/5/1 23/5/1 22/5/1
f 26/5/1 25/5/1 24/5/1
f 27/5/1 23/5/1 25/5/1
f 27/5/1 25/5/1 26/5/1
f 29/4/1 27/4/1 26/4/1
f 30/5/1 23/5/1 27/5/1
f 30/4/1 27/4/1 29/4/1
f 31/5/1 23/5/1 30/5/1
f 33/4/1 29/4/1 28/4/1
f 34/5/1 32/5/1 31/5/1
f 35/5/1 32/5/1 34/5/1
f 36/4/1 33/4/1 28/4/1
f 37/4/1 33/4/1 36/4/1
f 41/7/1 39/7/1 38/7/1
f 42/6/1 40/6/1 39/6/1
f 42/7/1 39/7/1 41/7/1
f 43/6/1 40/6/1 42/6/1
f 44/4/1 42/4/1 41/4/1
f 44/5/1 43/5/1 42/5/1
f 45/5/1 43/5/1 44/5/1
f 46/4/1 44/4/1 41/4/1
f 47/4/1 44/4/1 46/4/1
f 50/5/1 49/5/1 48/5/1
f 51/5/1 49/5/1 50/5/1
f 52/4/2 53/4/2 55/4/2
f 53/4/2 54/4/2 55/4/2
f 55/4/2 54/4/2 56/4/2
f 56/4/2 54/4/2 57/4/2
f 57/4/2 54/4/2 58/4/2
f 56/4/2 57/4/2 60/4/2
f 58/3/2 59/3/2 61/3/2
f 60/4/2 57/4/2 61/4/2
f 57/3/2 58/3/2 61/3/2
f 61/3/2 59/3/2 62/3/2
f 62/3/2 59/3/2 63/3/2
f 63/3/2 59/3/2 64/3/2
f 65/7/2 66/7/2 68/7/2
f 66/6/2 67/6/2 69/6/2
f 68/7/2 66/7/2 69/7/2
f 69/6/2 67/6/2 70/6/2
f 68/4/2 69/4/2 71/4/2
f 69/5/2 70/5/2 72/5/2
f 71/4/2 69/4/2 72/4/2
f 72/5/2 70/5/2 73/5/2
f 72/5/2 73/5/2 76/5/2
f 73/5/2 74/5/2 76/5/2
f 71/5/2 72/5/2 76/5/2
f 76/5/2 74/5/2 77/5/2
f 75/5/2 76/5/2 77/5/2
f 77/5/2 74/5/2 78/5/2
f 75/5/2 77/5/2 79/5/2
f 77/4/2 78/4/2 80/4/2
f 79/5/2 77/5/2 80/5/2
f 75/5/2 79/5/2 81/5/2
f 79/1/2 80/1/2 82/1/2
f 81/5/2 79/5/2 82/5/2
f 82/1/2 80/1/2 83/1/2
f 80/4/2 78/4/2 84/4/2
f 83/1/2 80/1/2 84/1/2
f 84/4/2 78/4/2 85/4/2
f 88/4/3 87/4/3 86/4/3
f 89/4/3 87/4/3 88/4/3
f 90/5/3 89/5/3 88/5/3
f 91/5/3 89/5/3 90/5/3
f 97/5/3 93/5/3 92/5/3
f 98/4/3 94/4/3 93/4/3
f 98/5/3 93/5/3 97/5/3
f 99/4/3 94/4/3 98/4/3
f 100/4/3 94/4/3 99/4/3
f 101/4/3 94/4/3 100/4/3
f 104/5/3 96/5/3 95/5/3
f 105/4/3 97/4/3 96/4/3
f 105/5/3 96/5/3 104/5/3
f 106/4/3 97/4/3 105/4/3
f 107/4/3 100/4/3 99/4/3
f 108/4/3 100/4/3 107/4/3
f 109/7/3 103/7/3 102/7/3
f 110/4/3 104/4/3 103/4/3
f 110/7/3 103/7/3 109/7/3
f 110/4/3 105/4/3 104/4/3
f 111/5/3 106/5/3 105/5/3
f 111/4/3 105/4/3 110/4/3
f 112/5/3 106/5/3 111/5/3
f 113/1/3 108/1/3 107/1/3
f 114/1/3 108/1/3 113/1/3
f 119/4/3 116/4/3 115/4/3
f 120/4/3 116/4/3 119/4/3
f 121/5/3 118/5/3 117/5/3
f 122/5/3 118/5/3 121/5/3
f 125/3/3 124/3/3 123/3/3
f 126/3/3 124/3/3 125/3/3
f 127/5/4 128/5/4 130/5/4
f 130/5/4 128/5/4 131/5/4
f 129/5/4 130/5/4 134/5/4
f 134/5/4 130/5/4 135/5/4
f 135/5/4 130/5/4 136/5/4
f 132/6/4 133/6/4 137/6/4
f 133/5/4 134/5/4 138/5/4
f 137/6/4 133/6/4 138/6/4
f 134/5/4 135/5/4 138/5/4
f 138/5/4 135/5/4 139/5/4
f 140/5/4 141/5/4 144/5/4
f 141/4/4 142/4/4 145/4/4
f 144/5/4 141/5/4 145/5/4
f 145/4/4 142/4/4 146/4/4
f 143/5/4 144/5/4 148/5/4
f 144/5/4 145/5/4 148/5/4
f 148/5/4 145/5/4 149/5/4
f 149/5/4 145/5/4 150/5/4
f 147/5/4 148/5/4 151/5/4
f 148/5/4 149/5/4 151/5/4
f 149/4/4 150/4/4 152/4/4
f 151/5/4 149/5/4 152/5/4
f 152/4/4 150/4/4 153/4/4
f 154/3/4 155/3/4 156/3/4
f 156/3/4 155/3/4 157/3/4
f 160/7/5 159/7/5 158/7/5
f 161/7/5 159/7/5 160/7/5
f 162/6/5 161/6/5 160/6/5
f 163/6/5 161/6/5 162/6/5
f 166/5/5 165/5/5 164/5/5
f 167/5/5 165/5/5 166/5/5
f 170/5/5 169/5/5 168/5/5
f 171/5/5 169/5/5 170/5/5
f 174/5/5 173/5/5 172/5/5
f 175/5/5 173/5/5 174/5/5
f 180/4/5 177/4/5 176/4/5
f 181/5/5 178/5/5 177/5/5
f 181/4/5 177/4/5 180/4/5
f 182/5/5 178/5/5 181/5/5
f 183/5/5 180/5/5 179/5/5
f 184/5/5 183/5/5 179/5/5
f 185/5/5 183/5/5 184/5/5
f 187/5/5 186/5/5 185/5/5
f 188/5/5 186/5/5 187/5/5
f 191/5/5 190/5/5 189/5/5
f 192/5/5 190/5/5 191/5/5
f 195/3/5 194/3/5 193/3/5
f 196/3/5 194/3/5 195/3/5
f 197/4/6 198/4/6 200/4/6
f 198/5/6 199/5/6 201/5/6
f 200/4/6 198/4/6 201/4/6
f 201/5/6 199/5/6 202/5/6
f 203/4/6 204/4/6 206/4/6
f 204/1/6 205/1/6 207/1/6
f 206/4/6 204/4/6 207/4/6
f 207/1/6 205/1/6 208/1/6
f 206/5/6 207/5/6 209/5/6
f 207/4/6 208/4/6 210/4/6
f 209/5/6 207/5/6 210/5/6
f 210/4/6 208/4/6 211/4/6
f 212/4/6 213/4/6 214/4/6
f 214/4/6 213/4/6 215/4/6
f 216/4/6 217/4/6 218/4/6
f 218/4/6 217/4/6 219/4/6
f 218/3/6 219/3/6 220/3/6
f 220/3/6 219/3/6 221/3/6
f 222/3/6 223/3/6 224/3/6
f 224/3/6 223/3/6 225/3/6
