# MagicaVoxel @ Ephtracy

# group
o 

# material
mtllib mechi_right_leg.mtl
usemtl palette

# normals
vn -1 0 0
vn 1 0 0
vn 0 0 1
vn 0 0 -1
vn 0 -1 0
vn 0 1 0

# texcoords
vt 0.853516 0.5
vt 0.861328 0.5
vt 0.978516 0.5
vt 0.982422 0.5

# verts
v -0.2 -0.3 0
v -0.2 -0.3 -0.1
v -0.2 -0.1 0.1
v -0.2 -0.1 0
v -0.2 -0.1 -0.1
v -0.2 -0.1 -0.2
v -0.2 0 0.1
v -0.2 0 0
v -0.2 0 -0.1
v -0.2 0 -0.2
v -0.2 0.2 0.1
v -0.2 0.2 0
v -0.2 0.2 -0.1
v -0.2 0.2 -0.2
v -0.2 0.3 0
v -0.2 0.3 -0.1
v -0.1 -0.5 0
v -0.1 -0.5 -0.1
v -0.1 -0.3 0.1
v -0.1 -0.3 0
v -0.1 -0.3 -0.1
v -0.1 -0.2 0.1
v -0.1 -0.2 0
v -0.1 -0.2 -0.1
v -0.1 -0.2 -0.2
v -0.1 -0.1 0.1
v -0.1 -0.1 0
v -0.1 -0.1 -0.1
v -0.1 -0.1 -0.2
v 0 -0.8 0
v 0 -0.8 -0.1
v 0 -0.7 0
v 0 -0.7 -0.1
v 0 -0.6 0.1
v 0 -0.6 0
v 0 -0.5 0
v 0 -0.5 -0.1
v 0 -0.4 -0.1
v 0 -0.4 -0.2
v 0 -0.3 0.1
v 0 -0.3 0
v 0 -0.3 -0.1
v 0 -0.3 -0.2
v 0 -0.2 -0.1
v 0 -0.2 -0.2
v -0.1 0 0.1
v -0.1 0 0
v -0.1 0 -0.1
v -0.1 0 -0.2
v -0.1 0.2 0.1
v -0.1 0.2 0
v -0.1 0.2 -0.1
v -0.1 0.2 -0.2
v -0.1 0.3 0
v -0.1 0.3 -0.1
v 0 -0.1 0.1
v 0 -0.1 0
v 0 -0.1 -0.1
v 0 -0.1 -0.2
v 0 0 0.1
v 0 0 0
v 0 0 -0.1
v 0 0 -0.2
v 0.1 -0.8 0
v 0.1 -0.8 -0.1
v 0.1 -0.7 0
v 0.1 -0.7 -0.1
v 0.1 -0.6 0.1
v 0.1 -0.6 0
v 0.1 -0.5 0
v 0.1 -0.5 -0.1
v 0.1 -0.4 0
v 0.1 -0.4 -0.1
v 0.1 -0.4 -0.2
v 0.1 -0.3 0.1
v 0.1 -0.3 0
v 0.1 -0.3 -0.1
v 0.1 -0.3 -0.2
v 0.1 -0.2 0.1
v 0.1 -0.2 0
v 0.1 -0.2 -0.1
v 0.1 -0.2 -0.2
v 0.1 -0.1 0.1
v 0.1 -0.1 0
v 0.1 -0.1 -0.1
v 0.1 -0.1 -0.2
v -0.2 -0.1 0.1
v -0.2 0 0.1
v -0.2 0.2 0.1
v -0.1 -0.3 0.1
v -0.1 -0.2 0.1
v -0.1 -0.1 0.1
v -0.1 0 0.1
v -0.1 0.2 0.1
v 0 -0.6 0.1
v 0 -0.3 0.1
v 0 -0.2 0.1
v 0 -0.1 0.1
v 0 0 0.1
v 0.1 -0.6 0.1
v 0.1 -0.3 0.1
v 0.1 -0.2 0.1
v 0.1 -0.1 0.1
v -0.2 -0.3 0
v -0.2 -0.1 0
v -0.2 0.2 0
v -0.2 0.3 0
v -0.1 -0.5 0
v -0.1 -0.3 0
v -0.1 -0.2 0
v -0.1 -0.1 0
v -0.1 0.2 0
v -0.1 0.3 0
v 0 -0.8 0
v 0 -0.7 0
v 0 -0.6 0
v 0 -0.5 0
v 0 -0.3 0
v 0.1 -0.8 0
v 0.1 -0.7 0
v 0.1 -0.6 0
v -0.2 -0.3 -0.1
v -0.2 -0.1 -0.1
v -0.2 0.2 -0.1
v -0.2 0.3 -0.1
v -0.1 -0.5 -0.1
v -0.1 -0.3 -0.1
v -0.1 -0.2 -0.1
v -0.1 -0.1 -0.1
v -0.1 0.2 -0.1
v -0.1 0.3 -0.1
v 0 -0.8 -0.1
v 0 -0.7 -0.1
v 0 -0.5 -0.1
v 0 -0.4 -0.1
v 0 -0.3 -0.1
v 0 -0.2 -0.1
v 0.1 -0.8 -0.1
v 0.1 -0.7 -0.1
v 0.1 -0.5 -0.1
v 0.1 -0.4 -0.1
v -0.2 -0.1 -0.2
v -0.2 0 -0.2
v -0.2 0.2 -0.2
v -0.1 -0.2 -0.2
v -0.1 -0.1 -0.2
v -0.1 0 -0.2
v -0.1 0.2 -0.2
v 0 -0.4 -0.2
v 0 -0.3 -0.2
v 0 -0.2 -0.2
v 0 -0.1 -0.2
v 0 0 -0.2
v 0.1 -0.4 -0.2
v 0.1 -0.3 -0.2
v 0.1 -0.2 -0.2
v 0.1 -0.1 -0.2
v 0 -0.8 0
v 0.1 -0.8 0
v 0 -0.8 -0.1
v 0.1 -0.8 -0.1
v 0 -0.6 0.1
v 0.1 -0.6 0.1
v 0 -0.6 0
v 0.1 -0.6 0
v -0.1 -0.5 0
v 0 -0.5 0
v -0.1 -0.5 -0.1
v 0 -0.5 -0.1
v 0 -0.4 -0.1
v 0.1 -0.4 -0.1
v 0 -0.4 -0.2
v 0.1 -0.4 -0.2
v -0.1 -0.3 0.1
v 0 -0.3 0.1
v -0.2 -0.3 0
v -0.1 -0.3 0
v 0 -0.3 0
v -0.2 -0.3 -0.1
v -0.1 -0.3 -0.1
v -0.1 -0.2 -0.1
v 0 -0.2 -0.1
v -0.1 -0.2 -0.2
v 0 -0.2 -0.2
v -0.2 -0.1 0.1
v -0.1 -0.1 0.1
v -0.2 -0.1 0
v -0.1 -0.1 0
v -0.2 -0.1 -0.1
v -0.1 -0.1 -0.1
v -0.2 -0.1 -0.2
v -0.1 -0.1 -0.2
v 0 -0.1 0.1
v 0.1 -0.1 0.1
v 0 -0.1 0
v 0.1 -0.1 0
v 0 -0.1 -0.1
v 0.1 -0.1 -0.1
v 0 -0.1 -0.2
v 0.1 -0.1 -0.2
v -0.1 0 0.1
v 0 0 0.1
v -0.1 0 0
v 0 0 0
v -0.1 0 -0.1
v 0 0 -0.1
v -0.1 0 -0.2
v 0 0 -0.2
v -0.2 0.2 0.1
v -0.1 0.2 0.1
v -0.2 0.2 0
v -0.1 0.2 0
v -0.2 0.2 -0.1
v -0.1 0.2 -0.1
v -0.2 0.2 -0.2
v -0.1 0.2 -0.2
v -0.2 0.3 0
v -0.1 0.3 0
v -0.2 0.3 -0.1
v -0.1 0.3 -0.1

# faces
f 4/3/1 2/3/1 1/3/1
f 5/3/1 2/3/1 4/3/1
f 7/2/1 4/2/1 3/2/1
f 8/4/1 5/4/1 4/4/1
f 8/2/1 4/2/1 7/2/1
f 9/2/1 6/2/1 5/2/1
f 9/4/1 5/4/1 8/4/1
f 10/2/1 6/2/1 9/2/1
f 11/1/1 8/1/1 7/1/1
f 12/2/1 9/2/1 8/2/1
f 12/1/1 8/1/1 11/1/1
f 13/1/1 10/1/1 9/1/1
f 13/2/1 9/2/1 12/2/1
f 14/1/1 10/1/1 13/1/1
f 15/1/1 13/1/1 12/1/1
f 16/1/1 13/1/1 15/1/1
f 20/3/1 18/3/1 17/3/1
f 21/3/1 18/3/1 20/3/1
f 22/1/1 20/1/1 19/1/1
f 23/1/1 20/1/1 22/1/1
f 26/2/1 23/2/1 22/2/1
f 27/2/1 23/2/1 26/2/1
f 28/2/1 25/2/1 24/2/1
f 29/2/1 25/2/1 28/2/1
f 32/4/1 31/4/1 30/4/1
f 33/4/1 31/4/1 32/4/1
f 35/3/1 33/3/1 32/3/1
f 36/3/1 33/3/1 35/3/1
f 36/1/1 35/1/1 34/1/1
f 37/3/1 33/3/1 36/3/1
f 40/1/1 36/1/1 34/1/1
f 41/1/1 36/1/1 40/1/1
f 42/1/1 39/1/1 38/1/1
f 43/1/1 39/1/1 42/1/1
f 44/2/1 43/2/1 42/2/1
f 45/2/1 43/2/1 44/2/1
f 46/1/2 47/1/2 50/1/2
f 47/2/2 48/2/2 51/2/2
f 50/1/2 47/1/2 51/1/2
f 48/1/2 49/1/2 52/1/2
f 51/2/2 48/2/2 52/2/2
f 52/1/2 49/1/2 53/1/2
f 51/1/2 52/1/2 54/1/2
f 54/1/2 52/1/2 55/1/2
f 56/1/2 57/1/2 60/1/2
f 57/2/2 58/2/2 61/2/2
f 60/1/2 57/1/2 61/1/2
f 58/1/2 59/1/2 62/1/2
f 61/2/2 58/2/2 62/2/2
f 62/1/2 59/1/2 63/1/2
f 64/4/2 65/4/2 66/4/2
f 66/4/2 65/4/2 67/4/2
f 66/3/2 67/3/2 69/3/2
f 69/3/2 67/3/2 70/3/2
f 68/1/2 69/1/2 70/1/2
f 70/3/2 67/3/2 71/3/2
f 68/1/2 70/1/2 72/1/2
f 70/1/2 71/1/2 72/1/2
f 72/1/2 71/1/2 73/1/2
f 68/1/2 72/1/2 75/1/2
f 72/2/2 73/2/2 76/2/2
f 75/1/2 72/1/2 76/1/2
f 73/1/2 74/1/2 77/1/2
f 76/2/2 73/2/2 77/2/2
f 77/1/2 74/1/2 78/1/2
f 75/2/2 76/2/2 79/2/2
f 76/1/2 77/1/2 80/1/2
f 79/2/2 76/2/2 80/2/2
f 77/2/2 78/2/2 81/2/2
f 80/1/2 77/1/2 81/1/2
f 81/2/2 78/2/2 82/2/2
f 79/1/2 80/1/2 83/1/2
f 80/2/2 81/2/2 84/2/2
f 83/1/2 80/1/2 84/1/2
f 81/1/2 82/1/2 85/1/2
f 84/2/2 81/2/2 85/2/2
f 85/1/2 82/1/2 86/1/2
f 92/2/3 88/2/3 87/2/3
f 93/1/3 89/1/3 88/1/3
f 93/2/3 88/2/3 92/2/3
f 94/1/3 89/1/3 93/1/3
f 96/1/3 91/1/3 90/1/3
f 97/2/3 92/2/3 91/2/3
f 97/1/3 91/1/3 96/1/3
f 98/1/3 93/1/3 92/1/3
f 98/2/3 92/2/3 97/2/3
f 99/1/3 93/1/3 98/1/3
f 100/1/3 96/1/3 95/1/3
f 101/2/3 97/2/3 96/2/3
f 101/1/3 96/1/3 100/1/3
f 102/1/3 98/1/3 97/1/3
f 102/2/3 97/2/3 101/2/3
f 103/1/3 98/1/3 102/1/3
f 109/3/3 105/3/3 104/3/3
f 110/3/3 105/3/3 109/3/3
f 111/3/3 105/3/3 110/3/3
f 112/1/3 107/1/3 106/1/3
f 113/1/3 107/1/3 112/1/3
f 117/3/3 109/3/3 108/3/3
f 118/3/3 109/3/3 117/3/3
f 119/4/3 115/4/3 114/4/3
f 120/3/3 116/3/3 115/3/3
f 120/4/3 115/4/3 119/4/3
f 121/3/3 116/3/3 120/3/3
f 122/3/4 123/3/4 127/3/4
f 127/3/4 123/3/4 128/3/4
f 128/3/4 123/3/4 129/3/4
f 124/1/4 125/1/4 130/1/4
f 130/1/4 125/1/4 131/1/4
f 126/3/4 127/3/4 134/3/4
f 134/3/4 127/3/4 135/3/4
f 127/1/4 128/1/4 136/1/4
f 135/3/4 127/3/4 136/3/4
f 136/1/4 128/1/4 137/1/4
f 132/4/4 133/4/4 138/4/4
f 133/3/4 134/3/4 139/3/4
f 138/4/4 133/4/4 139/4/4
f 134/1/4 135/1/4 140/1/4
f 139/3/4 134/3/4 140/3/4
f 140/1/4 135/1/4 141/1/4
f 142/2/4 143/2/4 146/2/4
f 143/1/4 144/1/4 147/1/4
f 146/2/4 143/2/4 147/2/4
f 147/1/4 144/1/4 148/1/4
f 145/2/4 146/2/4 151/2/4
f 146/1/4 147/1/4 152/1/4
f 151/2/4 146/2/4 152/2/4
f 152/1/4 147/1/4 153/1/4
f 149/1/4 150/1/4 154/1/4
f 150/2/4 151/2/4 155/2/4
f 154/1/4 150/1/4 155/1/4
f 151/1/4 152/1/4 156/1/4
f 155/2/4 151/2/4 156/2/4
f 156/1/4 152/1/4 157/1/4
f 160/4/5 159/4/5 158/4/5
f 161/4/5 159/4/5 160/4/5
f 164/1/5 163/1/5 162/1/5
f 165/1/5 163/1/5 164/1/5
f 168/3/5 167/3/5 166/3/5
f 169/3/5 167/3/5 168/3/5
f 172/1/5 171/1/5 170/1/5
f 173/1/5 171/1/5 172/1/5
f 177/1/5 175/1/5 174/1/5
f 178/1/5 175/1/5 177/1/5
f 179/3/5 177/3/5 176/3/5
f 180/3/5 177/3/5 179/3/5
f 183/2/5 182/2/5 181/2/5
f 184/2/5 182/2/5 183/2/5
f 187/2/5 186/2/5 185/2/5
f 188/2/5 186/2/5 187/2/5
f 191/2/5 190/2/5 189/2/5
f 192/2/5 190/2/5 191/2/5
f 193/1/6 194/1/6 195/1/6
f 195/1/6 194/1/6 196/1/6
f 195/2/6 196/2/6 197/2/6
f 197/2/6 196/2/6 198/2/6
f 197/1/6 198/1/6 199/1/6
f 199/1/6 198/1/6 200/1/6
f 201/1/6 202/1/6 203/1/6
f 203/1/6 202/1/6 204/1/6
f 203/2/6 204/2/6 205/2/6
f 205/2/6 204/2/6 206/2/6
f 205/1/6 206/1/6 207/1/6
f 207/1/6 206/1/6 208/1/6
f 209/1/6 210/1/6 211/1/6
f 211/1/6 210/1/6 212/1/6
f 213/1/6 214/1/6 215/1/6
f 215/1/6 214/1/6 216/1/6
f 217/1/6 218/1/6 219/1/6
f 219/1/6 218/1/6 220/1/6
